<svg id="Capa_1" data-name="Capa 1" xmlns="http://www.w3.org/2000/svg" viewBox="0 0 1337.5 1337.44"><defs><style>.cls-1{fill:#fff;}</style></defs><path class="cls-1" d="M753.33,81.29c-367.2-2-667,291.79-672,660.29-4.37,367.38,287,668.61,653.4,677,370.66,8.45,677.9-285.29,684-657.72C1424.71,389.21,1127.64,83.33,753.33,81.29ZM749.7,1413.21c-365.83-.16-663.4-295.06-662.87-664.12S385.57,86.58,750.93,86.72c365.84.15,662.51,297.58,662.46,663.6C1412.43,1117.54,1116.49,1413.37,749.7,1413.21Z" transform="translate(-81.25 -81.28)"/><path class="cls-1" d="M545.05,727.32c-4.19-.36-8.41-.27-12.6-.6-30.33-2.37-60.73-3.31-91.11-4.64-28.8-1.26-57.64-1.21-86.46-.72-23.78.4-47.6,1-71.08,5.58-4.95,1-5.05.92-5.88,5.8q-3.35,19.5-6.53,39c-1.58,9.67-3,19.36-4.65,29-.48,2.82.25,4,3.22,4.23,14.55,1.24,29.15,1.34,43.72,2.42,14.95,1.11,30,1.29,45,1.75,29.2.89,58.39,1.7,83.28,2.42,27.13-.43,50-.52,72.41-5.31,8.18-1.75,16.46-3.45,24-7.45,8.09-4.29,13.35-10.41,14.43-19.94,1.64-14.59.42-29.18.47-43.76C553.26,730.13,550.27,727.76,545.05,727.32Z" transform="translate(-81.25 -81.28)"/><path class="cls-1" d="M560.7,607.13c-28,1.08-56,2.31-83.94,3.39-24,.93-47.95,2.46-72,2.86a119.69,119.69,0,0,0-13.76,1,58.65,58.65,0,0,0-33.59,15.85,21.25,21.25,0,0,0-6.94,14.81c-.71,15.19-1.72,30.35-2.68,45.52-.33,5.33.87,6.86,6.31,6.89,7.4,0,14.78.28,22.17.88,15.74,1.28,31.52,2.19,47.28,3.29,17.76,1.25,35.47,3.23,54.12,2.78,13.42.71,27.59-.7,41.76-1.55,10.93-.67,21.78-2.73,32.67-4a10,10,0,0,0,7.73-5,95.57,95.57,0,0,0,7.19-13.14c9.34-22,8.63-44.42,2.83-67C568.21,607.18,567.73,606.86,560.7,607.13Z" transform="translate(-81.25 -81.28)"/><path class="cls-1" d="M1027.22,706.26a30,30,0,0,1,0-3V529.67c0-.8,0-1.6,0-2.4-.11-4.68-.11-4.71-4.63-4.73-7.2,0-14.41,0-21.62,0-5.18,0-5.21,0-5.21,5.24q0,61.56-.1,123.13c0,1.24.91,2.8-.73,3.72-1.16-.27-1.56-1.24-2.1-2l-64.25-96.45q-10-15-20-29.95c-1.19-1.78-2.11-3.79-4.92-3.75-8.21.14-16.42.14-24.63,0-2.42,0-3.21,1-3.09,3.23.07,1.2,0,2.4,0,3.6q0,86.19,0,172.39c0,1.6.08,3.21,0,4.8-.16,2.08.74,2.9,2.76,2.89,8.81,0,17.62,0,26.43,0,2.12,0,2.81-.94,2.69-2.91-.09-1.4,0-2.8,0-4.2q0-55.86,0-111.72v-13l1.15-.11c1.31,2,2.61,4,3.93,5.94q29.38,43.9,58.78,87.82,11.67,17.46,23.31,35c1.1,1.66,2,3.31,4.54,3.27,8.21-.13,16.42-.08,24.62,0C1026.32,709.44,1027.45,708.64,1027.22,706.26Z" transform="translate(-81.25 -81.28)"/><path class="cls-1" d="M726.21,708c16.48,5.37,33.39,6.14,50.4,3.31,29.39-4.88,49.32-21.45,59.67-49.4,5.48-14.82,7.4-30.23,7.2-46,0-16.06-1.93-30.13-6.09-42.58-9.06-27.16-27.11-44.69-55.24-51.4a101,101,0,0,0-19.64-2.32c-14.94-.58-29.57,1.18-43.38,7.36-22.06,9.87-34.66,27.66-41.26,50.19-4.21,14.32-5.27,29.07-4.88,44,.41,15.94,2.85,31.47,9.31,46.16C691,687.14,705.36,701.17,726.21,708Zm-15.93-126.6C718,558,734.39,546.25,759,546.78a59.83,59.83,0,0,1,14.86,1.74c14.35,3.93,23.95,13.14,29.94,26.45,4.75,10.57,6.42,21.87,7,33.28.64,13.22-.06,26.41-3.56,39.28-3.89,14.27-10.84,26.58-25.05,32.6-18.6,7.9-37.07,7.34-54.48-3.76-7.31-4.65-11.89-11.74-15.24-19.6-5.61-13.14-6.67-27.07-7-41.7C705.76,604.05,706.62,592.51,710.28,581.35Z" transform="translate(-81.25 -81.28)"/><path class="cls-1" d="M1066.13,615.75q0,44.44,0,88.91c0,4.62.06,4.63,4.52,4.74.6,0,1.21,0,1.81,0h108.74c1.4,0,2.8,0,4.2,0s2.09-.87,2.09-2.29c0-7.41,0-14.82,0-22.23,0-1.82-.9-2.46-2.58-2.42-1.4,0-2.8,0-4.2,0q-38.76,0-77.51,0c-4.56,0-4.64-.09-4.65-4.63q0-22.23,0-44.45c0-4.57.09-4.65,4.61-4.66q23.13,0,46.26,0,12,0,24,0c2.13,0,4,0,4-3-.08-7.2-.06-14.41,0-21.62,0-2.08-1-2.87-3-2.83-1.4,0-2.8,0-4.2,0h-65.49c-7.07,0-6.23.4-6.24-6,0-12.81,0-25.63,0-38.45,0-7.23-1.17-6.84,6.64-6.84h72.7c6.77,0,6.71.73,6.67-6.35,0-5.2,0-10.41,0-15.62s0-5.36-5.17-5.36H1074.83c-1.81,0-3.61.05-5.41,0-2.25-.11-3.38.81-3.29,3.13,0,1.4,0,2.8,0,4.2Z" transform="translate(-81.25 -81.28)"/><path class="cls-1" d="M447.83,592.3c10.34-1,20.75-1.31,31.13-1.92v0l79.69-4c4.78-.24,4.92-.21,5.49-4.95,1.81-15.3,3.24-30.64,2.52-46.08a84,84,0,0,0-2.9-19.54c-1.92-6.65-4.83-11-14.1-10.8-21.8.39-43.6.12-65.41.12-16.4,0-32.8,0-49.2,0-3.92,0-4.77.29-5.24,4.51-1.09,9.72-2.8,19.38-4.14,29.08-1.26,9.11-2.56,18.21-3.48,27.35C420.9,578.88,429.12,594.18,447.83,592.3Z" transform="translate(-81.25 -81.28)"/><path class="cls-1" d="M1068.28,868.2a8.37,8.37,0,0,0,9.82,3.32c3.3-1.15,1.64-4.17,1.65-6.25.14-21.42.09-42.83.09-64.25,0-1.4,0-2.8-.08-4.2a2.41,2.41,0,0,0-1.51-2.33c-4.39-1.81-7.91.32-7.91,4.85q0,25.51,0,51c0,.91.55,2-.82,2.93-1.31-.45-1.62-1.49-2.16-2.29-11.8-17.38-23.66-34.72-35.31-52.2-2.24-3.36-4.67-5-8.81-4.59-2.52.25-3.57,1-3.52,3.55.12,5.6.07,11.21.07,16.81q0,26.43,0,52.84c0,1.31-.78,3.2.82,3.79a12.14,12.14,0,0,0,7.65.11c2.25-.71,1.21-3.12,1.22-4.75.1-16.61.07-33.22.14-49.83,0-1.26-.68-2.74.6-3.78,1,.17,1.27,1,1.69,1.6q11.11,16.38,22.21,32.79C1058.84,854.31,1063.54,861.27,1068.28,868.2Z" transform="translate(-81.25 -81.28)"/><path class="cls-1" d="M753.11,832.15a47.89,47.89,0,0,0-3.34-19.62c-3.67-9.58-10.41-15.94-20.41-18.62-4.49-1.21-9.11-1-13.7-.9-14.21.39-24.67,8.5-28.65,22.11a63.18,63.18,0,0,0,0,35.46c3.75,13.34,14.14,21.43,28.05,22.17,2.19.12,4.39.11,6.59,0,13.23-.37,23.31-7.43,28.07-19.74A53.13,53.13,0,0,0,753.11,832.15Zm-11.73,14.49c-3.18,11.44-10.94,17.47-22.66,17.45s-19.58-6.05-22.54-17.57a55.77,55.77,0,0,1,.05-27.85c2.82-11.06,10.71-17,22.25-17.2,10.86-.2,19.1,5.66,22.52,16.16a43.7,43.7,0,0,1,1.92,14.78A54.24,54.24,0,0,1,741.38,846.64Z" transform="translate(-81.25 -81.28)"/><path class="cls-1" d="M795.71,919.44c0-4.16-.09-4.16-4.46-4.24-5.23-.1-5.25-.1-5.28,5.19,0,5.81,0,11.61,0,17.42v7.31a40.74,40.74,0,0,0-8-4.73c-11.5-4.63-24.86.06-29.52,11s-4.75,22.35.4,33.2c6.32,13.35,25.29,16.06,35.64,5.43.8-.81,1.07-2.18,3.07-2.43.49,2,.91,3.74,1.33,5.47.31,1.28.94,2.13,2.43,2.11,3.1,0,4.5.4,4.48-4.29C795.65,967.08,795.73,943.26,795.71,919.44Zm-19.6,68.13c-6.35,2.26-12.75.82-16.42-3.73a16.58,16.58,0,0,1-3.58-7.51,44.62,44.62,0,0,1,.1-17.87c1.33-5.77,4.31-10.53,10.62-11.68,6.89-1.25,13.07.41,18,5.69C786,953.63,786,955,786,956.36v10.19c0,2.8,0,5.59,0,8.39C785.94,980.91,782.52,985.29,776.11,987.57Z" transform="translate(-81.25 -81.28)"/><path class="cls-1" d="M731.86,986.62c-10.21,0-20.42-.09-30.63,0-2.85,0-4-.88-3.88-3.78.14-6.2,0-12.41.07-18.61.05-4.16.13-4.23,4.46-4.25,8.81,0,17.62.05,26.42,0,3.8,0,3.94-.28,3.92-4.2s-.13-4.15-3.86-4.16c-8.61,0-17.22,0-25.82,0-5,0-5.1,0-5.14-4.8q-.06-8.11,0-16.22c0-4.58.08-4.65,4.64-4.67,9.61,0,19.22,0,28.83,0,4.13,0,4.16-.14,4.18-3.88s-.15-4.07-4-4.08q-19.82-.06-39.63,0c-4.12,0-4.19.11-4.2,4.46,0,11.21,0,22.42,0,33.63,0,11.41,0,22.82,0,34.23,0,4.51.07,4.6,4.69,4.63,10.61.07,21.22,0,31.83,0,3.2,0,6.4,0,9.6,0,1.17,0,2.4.08,3-1.34C738,989.85,736,986.63,731.86,986.62Z" transform="translate(-81.25 -81.28)"/><path class="cls-1" d="M977.53,861.37a41.86,41.86,0,0,1-19.28,3.14c-9.92-.56-15.69-7.46-14.76-17.72,1.92-.79,3.94-.39,5.91-.4,9.41,0,18.81-.09,28.21.08,2.87,0,3.92-.86,3.88-3.75a46.79,46.79,0,0,0-2.07-14.17,18.2,18.2,0,0,0-13.94-12.69,33.22,33.22,0,0,0-13.1-.51c-9.3,1.49-15.06,6.95-17.61,15.84a46.06,46.06,0,0,0-.64,22c2.42,12.07,9.58,18.28,21.76,19.61a48.54,48.54,0,0,0,16.64-1.45C978.89,869.79,979.61,868.25,977.53,861.37Zm-12-37.07c3.84,1.93,7.09,8.36,6.51,12.7-.21,1.56-1.19,2-2.49,2q-13.15,0-26.31,0C943.14,825.86,954.38,818.7,965.52,824.3Z" transform="translate(-81.25 -81.28)"/><path class="cls-1" d="M1132.75,871.36c6.58-1.59,7-2.43,5.75-10.07a50,50,0,0,1-18.66,3.27c-10.77-.42-16.67-6.67-16.3-17.86,3.7-.75,7.49-.25,11.24-.29,7.6-.08,15.19-.09,22.79.06,2.85,0,3.89-.93,3.83-3.81-.09-4.21,0-8.41-1.16-12.49-2-7.07-6.23-12-13.4-14a33.4,33.4,0,0,0-14.83-.63c-8.64,1.48-13.83,6.54-16.55,14.59a43.52,43.52,0,0,0-1.08,23c2.45,11.88,9.8,18.33,21.76,19.63A47.87,47.87,0,0,0,1132.75,871.36ZM1125.43,824c4.06,1.84,7.49,8.58,6.74,13.15-.32,2-1.83,1.82-3.19,1.82-8.37,0-16.73,0-25.58,0C1103.63,826,1114.42,819,1125.43,824Z" transform="translate(-81.25 -81.28)"/><path class="cls-1" d="M1073.62,939.3a33.7,33.7,0,0,0-14.87.76,22.3,22.3,0,0,0-14.57,12.43c-3,6.19-3.12,12.72-2.67,19.37,1.39,20.76,23.42,31.95,41.1,20.79,9.1-5.74,11.58-14.79,12-24.77a37.79,37.79,0,0,0-1.35-10.71C1090.42,947.15,1083.92,941,1073.62,939.3Zm10,36.61c-1.66,7.69-7.39,12.42-15.3,12.74-7.47.3-13.48-3.93-15.89-11.22a30.31,30.31,0,0,1-1.22-10.75,25.64,25.64,0,0,1,1.55-10.52c2.68-7.38,7.94-10.61,16.38-10.19a15.16,15.16,0,0,1,14.45,12.13A40.85,40.85,0,0,1,1083.64,975.91Z" transform="translate(-81.25 -81.28)"/><path class="cls-1" d="M833.6,866.69c.93-.84,1.22-2.65,3.31-2.17.36,1.67.75,3.39,1.11,5.11.5,2.46,2.39,2.24,4.21,2.28,2.29.05,2.49-1.41,2.49-3.17,0-12.21.24-24.43-.13-36.62-.27-9.23-5.6-14.65-14.71-16.21a41,41,0,0,0-19,1.12c-6.63,2-6.66,2-5.32,9.78a51.41,51.41,0,0,1,19.27-3.49c7.52.16,10.52,3.19,10.69,10.6.05,2.49-.6,3.76-3.33,3.65-3.39-.14-6.8-.1-10.2,0-5,.13-9.91,1-14.34,3.72-6.24,3.83-8.1,9.76-7.56,16.5.57,7,4.26,11.89,11.23,14C819.77,874.34,827.13,872.55,833.6,866.69ZM817.72,845a62.8,62.8,0,0,1,8.35-.07v-.15a11.89,11.89,0,0,1,1.79,0c2.43.37,6-1.41,7.06,1.17a13.28,13.28,0,0,1-.11,9.37c-2,5.55-9.72,10.32-15.71,10.13s-10-3.69-10.36-9.32C808.31,849.81,811.39,845.81,817.72,845Z" transform="translate(-81.25 -81.28)"/><path class="cls-1" d="M953.77,939.86c-5.11-1.51-10.35-1.09-15.5-.71-3.32.24-6.63,1.45-9.83,2.56-2.23.77-3.24,3.85-2.29,6.63s2.94,1,4.42.61a53.39,53.39,0,0,1,16-2.08c7.3.2,10.62,3.58,10.58,10.77,0,2.48-.82,3.69-3.47,3.62-4-.12-8,0-12,0A23.27,23.27,0,0,0,928.6,965c-5.85,3.83-7.61,9.53-7.13,16.12a15.18,15.18,0,0,0,9.45,13.54,21.1,21.1,0,0,0,15.23.77c4.57-1.42,8-4.36,12-8.51.54,2.79.81,4.51,1.22,6.18.53,2.19,2.17,2.58,4.16,2.5,2.2-.09,2.53-1.46,2.53-3.24,0-12.61.24-25.22-.13-37.82C965.68,947,961,942,953.77,939.86Zm3.34,33.87c.06,9.09-9.86,17-18.77,15a9.7,9.7,0,0,1-7.86-9.27c-.38-5.26,1.5-8.55,6.24-10.29,5.94-2.19,12.18-1.3,18.32-1.41,1.55,0,2,1.08,2.05,2.36S957.11,972.53,957.11,973.73Z" transform="translate(-81.25 -81.28)"/><path class="cls-1" d="M1132.92,938.53c-6.9.8-12.43,4-17.13,9.81a9,9,0,0,1-1.76-5.16c-.17-2.78-1.4-3.78-4.21-3.67-3,.12-3,1.9-3,4q0,24,0,48c0,1-.25,2,.52,2.84.59.64,7.06,1.2,8.17.65,1.61-.8,1.26-2.33,1.27-3.68,0-9.41.2-18.82-.07-28.21-.2-7,3.4-11.42,8.94-14.41,8.59-4.63,19.21-1.53,19.88,10.44.55,10,.25,20,.4,30,.09,6,0,6,4.51,6,4.9.05,4.92.05,4.94-6.23,0-9,0-18,0-27a38,38,0,0,0-.77-7.75C1152.4,942.85,1144.49,937.19,1132.92,938.53Z" transform="translate(-81.25 -81.28)"/><path class="cls-1" d="M858.37,943c0-3.74-.15-3.58-4.92-3.76-2.92-.11-4.36.41-4.28,3.83.23,9-.18,18,.18,27,.27,6.81-3.05,11.5-8,15.19-4.42,3.32-9.62,4.13-14.74,1.52-4.65-2.36-5.91-6.77-5.94-11.63,0-5.2,0-10.4,0-15.61,0-5.6,0-11.2,0-16.8,0-2.27-.83-3.37-3.21-3.09a15,15,0,0,1-3,0c-2.48-.19-3.65.75-3.59,3.41.24,11.8-.56,23.62.41,35.4s11.16,19.24,22.82,17.41c6.53-1,11.18-4.87,16-10.24.59,2.9,1.06,4.84,1.36,6.8.45,3,2.65,2.44,4.6,2.48,2.41,0,2.28-1.63,2.28-3.3C858.38,975.38,858.42,959.17,858.37,943Z" transform="translate(-81.25 -81.28)"/><path class="cls-1" d="M1180.2,839.89c4.85-6.36,9.44-12.94,14.08-19.47.75-1,2.15-2,1.26-3.76-5.22-1.44-9,0-11.77,5-2.42,4.35-5.62,8.28-8.53,12.35-.75,1-1.12,2.71-3.21,2.37-3.28-4.85-6.64-9.82-10-14.79-4-6-6-6.61-13.35-4.25.47,1.81,1.8,3.08,2.83,4.52,4.09,5.69,8.25,11.33,12.33,17,3.14,4.4,3.11,4.43.08,8.74-5.4,7.66-10.8,15.32-16.57,23.48,5.66,1.81,9.24.64,12.09-4.21,3.49-5.94,7.75-11.43,12.06-17.67,4.69,6.9,8.91,13.17,13.19,19.4.87,1.27,1.35,3.1,3.32,3.13,2.86,0,5.77.47,9.22-.49-6-8.63-11.47-16.72-17.2-24.62C1178.18,844.11,1178.33,842.34,1180.2,839.89Z" transform="translate(-81.25 -81.28)"/><path class="cls-1" d="M894,871.53c5.93-1.67,6.64-3.17,4.33-9.48-2.45.79-4.88,1.64-7.35,2.36a23.65,23.65,0,0,1-7.73.68c-8-.37-13.64-4.88-15.31-12.65a42.49,42.49,0,0,1-.2-16.09c1.34-7.77,6.42-12.17,14.24-13.14,5.44-.67,10.62.48,15.69,2.38,1.47-7.12,1.19-7.69-4.66-9.37a31.64,31.64,0,0,0-4.09-.87c-17.42-2.57-29.33,6.88-31.41,21.8a43.9,43.9,0,0,0,1.76,20.07c3.13,9.52,9.91,14.69,19.9,15.57A40.79,40.79,0,0,0,894,871.53Z" transform="translate(-81.25 -81.28)"/><path class="cls-1" d="M900.62,988.58c-10,.89-17.13-4.21-19.12-14a35.45,35.45,0,0,1,.08-14.86c1.91-8.74,7.58-13.25,16.58-13.33a31.31,31.31,0,0,1,13.39,2.81,8.64,8.64,0,0,0,.59-1.9c.37-5.73.27-5.89-5-7.57a32.25,32.25,0,0,0-16.57-.67c-9.22,1.94-15.29,7.43-18,16.46a40.69,40.69,0,0,0-.69,20.75c2.27,10.36,7.78,17.94,19,19.68a37.48,37.48,0,0,0,16-.81c6.37-1.8,7.54-2.63,6.06-9.77C908.63,986.37,904.83,988.21,900.62,988.58Z" transform="translate(-81.25 -81.28)"/><path class="cls-1" d="M1001.33,987.3c-5.87-.49-8-2.44-8.12-8.12-.15-9.39,0-18.78-.08-28.16,0-2.49.77-3.76,3.44-3.58,2,.13,4,0,6,.06s2.9-.87,2.9-2.83c0-4.28.17-5.62-4.83-5-1.18.13-2.4,0-3.59.06-2.5.25-3.7-.64-3.57-3.32.14-3,0-6,0-9,0-1.7-.15-3.21-2.46-3.25-1.9,0-3.6,0-4.16,2.35-.76,3.1-1.83,6.14-2.35,9.28a5.1,5.1,0,0,1-4,4.58c-1.14.33-2.28.72-3.4,1.12-1.78.65-3.3,1.49-3,3.82.38,2.69,2.45,2.09,4.15,2.19,5.4.32,5.41.31,5.46,5.8.1,9.38-.1,18.78.36,28.14.51,10.4,4.7,14,15.23,14.14,4.64.06,5.11.08,5.65-1,1-1.86.71-3.93.34-5.84C1004.83,986.39,1002.78,987.42,1001.33,987.3Z" transform="translate(-81.25 -81.28)"/><path class="cls-1" d="M1215,802.91a32.34,32.34,0,0,0-1,4.07c-.75,5.7-2.54,10.39-9.28,11.22-2,.25-3,1.86-2.56,4,.43,1.85,2,1.59,3.37,1.61a17.46,17.46,0,0,0,2.4,0c3.13-.38,4.31,1,4.21,4.1-.16,4.8,0,9.61,0,14.41h0c0,4.21,0,8.41,0,12.62.07,13.11,4.89,17.58,18.09,17,2.6-.11,4.19-.54,3.94-3.68-.2-2.49.16-4.47-3.65-4.49-6.81,0-8.79-2.33-8.91-9.22-.13-7.61,0-15.22,0-22.82,0-8.84-1-7.88,7.45-7.91.8,0,1.6,0,2.4,0a1.94,1.94,0,0,0,1.89-1.14c1.62-3.5-.28-6.58-4.16-6.65-1.4,0-2.81-.09-4.2,0-2.52.21-3.68-.6-3.47-3.37.23-3,0-6,0-9,0-1.49-.23-2.83-2.15-3S1215.6,800.59,1215,802.91Z" transform="translate(-81.25 -81.28)"/><path class="cls-1" d="M920.55,832.47c0-5,0-10,0-15,0-7-.11-14,0-21,.06-3.1-1-4.41-4.17-4.16-2.59.21-5.2,0-7.81.05-1.21,0-2.53,0-3,1.45a2.41,2.41,0,0,0,1.33,3c4,1.69,3.79,5,3.78,8.51-.08,14,0,28,0,42.05,0,7,0,14,0,21,0,1.15-.39,2.79.94,3.16a12.85,12.85,0,0,0,7.69,0c2.16-.79,1.15-3.15,1.17-4.81C920.58,855.3,920.55,843.88,920.55,832.47Z" transform="translate(-81.25 -81.28)"/><path class="cls-1" d="M791.75,825.22c2.32-.24,3-1,3.11-3.27.17-5.55-1.11-6.77-6.67-5.7a16.48,16.48,0,0,0-9.28,5.14c-1,1.14-1.47,2.89-4,3.7-.41-2.27-.83-4.2-1.09-6.16-.4-3.14-2.67-2.92-4.93-2.95-2.89,0-2.44,2-2.45,3.75q0,16.21,0,32.43c0,5.41.07,10.82-.06,16.22-.06,2.24.56,3.43,3,3.27,1-.07,2,0,3,0,4.25-.1,4.35-.1,4.38-4.29.07-8.41,0-16.82,0-25.23C776.86,831.09,781,826.34,791.75,825.22Z" transform="translate(-81.25 -81.28)"/><path class="cls-1" d="M1029.54,968h0c0-8-.09-16,0-24,.05-3.12-1-4.33-4.21-4-2.58.24-5.19,0-7.79,0-1.17,0-2.49-.25-3.06,1.18a2.55,2.55,0,0,0,1.5,3.47c4.11,1.65,3.78,5,3.77,8.48q-.09,18.87,0,37.74c0,1.35-.62,3.13.69,3.93,2.31,1.41,5,.91,7.52.5,2.1-.35,1.54-2.5,1.55-4C1029.57,983.55,1029.54,975.76,1029.54,968Z" transform="translate(-81.25 -81.28)"/><path class="cls-1" d="M1019.9,926.9c1,0,2,0,3,0,6.17,0,6.17,0,6.25-4.17.08-4.34,0-4.45-4.64-4.53-1.58,0-3.16,0-4.73,0s-2.22.61-2.24,2.07,0,2.76,0,4.14C1017.47,926,1018.09,927,1019.9,926.9Z" transform="translate(-81.25 -81.28)"/></svg>